<svg id="Capa_1" enable-background="new 0 0 512 512" height="512" viewBox="0 0 512 512" width="512" xmlns="http://www.w3.org/2000/svg"><g><path d="m319.237 424.987c-19.709 8.563-35.52.659-36.107.357-.245-.131-.495-.252-.749-.362-19.725-8.539-33.037-8.539-52.762 0-.252.109-.501.229-.743.359-.159.085-16.383 8.229-36.109-.353-5.065-2.203-10.956.117-13.159 5.181s.116 10.956 5.181 13.159c9.633 4.19 18.692 5.6 26.524 5.6 14.065 0 24.171-4.548 26.513-5.705 14.389-6.188 21.961-6.19 36.348-.001 3.651 1.805 26.083 11.816 53.035.108 5.065-2.201 7.387-8.092 5.187-13.157-2.204-5.065-8.093-7.386-13.159-5.186z"/><path d="m512 317.528c0-.317-.019-.629-.047-.939.405-4.303-2.026-8.536-6.244-10.22-29.18-11.651-72.158-11.44-102.191.505-8.177 3.25-16.857 5.91-25.859 8.033-.49.073-.972.189-1.447.335-56.712 12.951-126.191 4.009-169.255-23.79-45.676-29.483-64.396-85.212-41.729-124.231 9.277-15.987 20.399-23.528 33.1-22.419 3.03.266 5.962 1.019 8.817 2.047 17.485 6.425 35.194 26.625 44.413 51.811 7.058 19.283 13.152 35.937 27.069 36.765 12.975.765 22.014-13.349 29.816-28.722 18.93-37.269 21.202-78.808 6.234-113.966-14.298-33.584-42.602-58.306-79.7-69.612-56.477-17.206-120.053-6.79-165.919 27.182-31.504 23.335-69.058 68.321-69.058 150.109v286.625c0 5.522 4.478 10 10 10h492c5.522 0 10-4.478 10-10zm-492 159.513v-49.343c4.429.867 8.634 1.216 12.534 1.216 14.087 0 24.2-4.551 26.517-5.694 14.387-6.213 21.956-6.214 36.341-.001 3.611 1.783 26.056 11.803 53.029.114 5.067-2.196 7.395-8.085 5.199-13.152s-8.085-7.392-13.152-5.199c-19.717 8.547-35.535.656-36.125.356-.237-.127-.48-.245-.728-.353-19.733-8.573-33.055-8.573-52.786 0-.245.107-.486.224-.723.35-.141.076-13.193 6.602-30.106 1.795v-107.248-99.466c0-73.462 33.151-113.438 60.962-134.037 40.871-30.276 97.652-39.52 148.185-24.123 31.346 9.554 55.186 30.264 67.128 58.315 12.646 29.706 10.582 65.089-5.666 97.078-5.24 10.324-8.751 14.804-10.607 16.694-3.022-4.412-7.089-15.521-9.664-22.558-4.225-11.543-10.063-22.524-17.41-32.385-6.608-8.869-14.482-16.91-23.616-23.187-4.718-3.242-9.841-6.088-15.207-8.109-36.216-13.659-71.959-6.734-98.059 19-15.257 15.042-26.347 35.958-31.228 58.893-5.064 23.795-3.43 48.311 4.727 70.896 1.471 4.073 5.312 6.606 9.406 6.606 1.127 0 2.274-.192 3.396-.598 5.194-1.876 7.885-7.607 6.009-12.802-13.691-37.916-4.755-82.638 21.732-108.755 7.933-7.822 16.866-13.386 26.506-16.66-2.965 3.552-5.869 7.678-8.662 12.491-13.578 23.374-16.104 51.91-7.11 80.354 8.974 28.386 28.609 53.503 55.289 70.724 27.354 17.658 64.706 29.01 105.175 31.964 7.081.517 14.145.772 21.148.772 6.551 0 13.044-.236 19.458-.678-52.412 25.665-134.726 17.62-184.722-12.459-4.735-2.848-10.877-1.317-13.725 3.414-2.847 4.732-1.318 10.877 3.414 13.725 32.167 19.351 76.849 30.731 120.247 30.731 1.308 0 2.614-.01 3.918-.031 48.719-.774 88.833-15.618 113.435-41.875 9.272-2.269 18.139-5.055 26.45-8.358 23.247-9.246 56.8-10.186 81.093-2.716v84.394c-16.823 4.82-29.573-1.53-30.102-1.799-.237-.127-.48-.245-.728-.353-19.731-8.573-33.053-8.575-52.786 0-.247.107-.416.187-.653.313-.664.338-16.48 8.229-36.199-.317-5.067-2.194-10.956.133-13.152 5.199-2.195 5.067.132 10.956 5.199 13.152 26.974 11.689 49.418 1.669 53.029-.113 14.383-6.213 21.952-6.215 36.339-.001 2.321 1.146 12.421 5.696 26.506 5.695 3.903 0 8.113-.35 12.547-1.218v49.345h-472.002z"/><path d="m111.721 301.095c-3.905 3.905-3.905 10.237 0 14.143l.028.028c1.949 1.949 4.499 2.922 7.051 2.922 2.56 0 5.121-.98 7.077-2.937 3.905-3.905 3.892-10.251-.014-14.156s-10.236-3.905-14.142 0z"/></g></svg>